<?xml version="1.0" encoding="utf-8"?>
<!-- Generator: Adobe Illustrator 26.0.2, SVG Export Plug-In . SVG Version: 6.00 Build 0)  -->
<svg version="1.1" id="Layer_1" xmlns="http://www.w3.org/2000/svg" xmlns:xlink="http://www.w3.org/1999/xlink" x="0px" y="0px"
	 viewBox="0 0 297.7 116.7" style="enable-background:new 0 0 297.7 116.7;" xml:space="preserve">
<style type="text/css">
	.st0{fill-rule:evenodd;clip-rule:evenodd;fill:#7882FF;}
</style>
<path class="st0" d="M35.3-0.4c-4.1,0.4-6.9,2.6-8.1,6.1c-0.5,1.5-0.7,2.7-0.7,5.3c-0.1,3.8,0.2,6.9,1,9.1c0.5,1.4,1.7,3.7,2.7,5.2
	c0.5,0.7,2.2,2.9,3.7,4.8c5,6.3,5.6,7.2,6.1,9.3c0.4,1.5,0.5,5.4,0.2,7.2c-0.2,1.6-0.6,2.3-1.5,2.7c-1,0.5-2.5,0.3-3.2-0.5
	c-0.9-0.9-1-2-1-8.5v-4.8h-4.3H26l0,6.5c0,3.5,0,6.8,0.1,7.2c0.2,1.9,0.9,3.6,1.8,5c1.3,1.9,3.8,3.2,6.8,3.6c1.1,0.1,4.4,0.1,5.6,0
	c5-0.6,8.1-3.8,9.1-9.3c0.3-1.8,0.4-4.5,0.3-7.1c-0.2-3.8-0.6-5.8-1.8-8.2c-0.8-1.7-2.1-3.4-5.6-8c-4.8-6.2-5.5-7.2-6.1-8.9
	c-0.4-1.1-0.6-2.1-0.7-3.9c-0.1-1.9,0.1-3.5,0.4-4.2c0.4-0.8,1.4-1.3,2.5-1.2c1,0.1,1.6,0.6,1.9,1.5c0.2,0.5,0.2,1.2,0.2,5.3l0,4.8
	h4.2h4.2l0-5.6c0-5.9-0.1-6.7-0.5-8.3c-0.4-1.2-0.9-2.1-1.8-3c-1.1-1.1-2.5-1.8-4.6-2.2C40.9-0.5,36.6-0.6,35.3-0.4z M0,28.6v28.6
	h4.3h4.3V44.6V32h3h3v12.6v12.6h4.3h4.3V28.6V0h-4.3h-4.3v11.4v11.4h-3h-3V11.4V0H4.3H0V28.6z M52.4,28.6v28.6h10h10v-4.3v-4.3h-5.7
	h-5.7v-8.3v-8.3h4.3h4.3v-4.3v-4.3h-4.3h-4.3v-7.5V8.2h5.5h5.5V4.1V0h-9.8h-9.8V28.6z M87.8,0.1c0,0.1-1,7.9-2.2,17.5
	c-1.2,9.6-2.8,22.2-3.5,28.1c-0.7,5.9-1.4,10.9-1.4,11.1l-0.1,0.4h4h4l0-0.2c0-0.1,0.3-2.5,0.6-5.3l0.6-5.1l3.2,0l3.2,0l0.2,2.3
	c0.1,1.3,0.4,3.7,0.6,5.3l0.3,3.1l4.3,0c2.3,0,4.3,0,4.3-0.1c0,0-1.1-8.1-2.4-17.9c-1.3-9.8-3-22.6-3.8-28.5L98.3,0L93,0
	C89.2,0,87.8,0,87.8,0.1z M107.1,28.6v28.6h4.4h4.4V44.4V31.6l1.7,0.1c2.1,0.1,2.7,0.2,3.2,0.8c0.2,0.2,0.4,0.6,0.5,0.8
	c0.1,0.3,0.1,2.9,0.2,11c0.1,11.4,0.1,11.4,0.6,12.5l0.2,0.4h4.4c3.6,0,4.4,0,4.4-0.1c0-0.1-0.1-0.4-0.3-0.8
	c-0.6-1.5-0.6-1.1-0.7-13.9c-0.1-13.1,0-12.1-0.8-13.5c-0.5-0.9-1.7-2-2.7-2.4l-0.4-0.1l0.5-0.3c0.7-0.4,1.9-1.6,2.4-2.5
	c0.2-0.4,0.5-1.1,0.6-1.6l0.2-0.9v-7.3V6.5l-0.2-1c-0.6-2.2-1.7-3.7-3.4-4.5c-2-0.9-2.4-1-11.7-1h-7.7V28.6z M131.7,4.1v4.1h3.6h3.6
	v24.5v24.5h4.3h4.3V32.7V8.2h3.6h3.6V4.1V0h-11.6h-11.6V4.1z M166.1,10.5c-0.7,5.7-2.3,18.5-3.5,28.3c-1.2,9.8-2.2,18-2.3,18.1
	l-0.1,0.3h4h4l0.1-0.5c0-0.3,0.3-2.5,0.5-5c0.3-2.5,0.5-4.7,0.5-4.9l0.1-0.4h3.2c1.8,0,3.2,0,3.2,0.1c0,0,0.3,2.4,0.6,5.3
	c0.3,2.9,0.6,5.3,0.6,5.3c0,0,1.9,0,4.3,0h4.3l-0.1-0.2c0-0.2-1.8-13.2-6.3-47.5c-0.7-5-1.2-9.2-1.2-9.3c0-0.1-1.5-0.1-5.3-0.1h-5.3
	L166.1,10.5z M187.1,28.6v28.6h3.9h3.9l0-16.4l0-16.4l4.1,16.4l4.1,16.4l3.5,0l3.5,0V28.6V0h-3.9h-3.9v15.3c0,8.4,0,15.3,0,15.3
	c0,0-2.9-11.9-5.8-23.8c-0.9-3.5-1.6-6.5-1.6-6.6C194.9,0,194.6,0,191,0h-3.9V28.6z M213.8,28.6v28.6l7.6,0c6.8,0,7.7-0.1,8.4-0.2
	c4.1-0.9,6.2-3.4,6.9-8.2c0.1-0.7,0.1-4.9,0.1-20.5c0-18.5,0-19.6-0.2-20.7c-0.4-2.3-1.2-3.9-2.4-5.2c-1-1-2-1.6-3.7-2l-1.1-0.3
	l-7.9,0l-7.9,0V28.6z M119.8,7.9c0.7,0.2,1.2,0.7,1.5,1.5c0.2,0.5,0.2,1,0.2,6.1V21l-0.3,0.6c-0.3,0.8-1,1.4-1.7,1.7
	c-0.4,0.1-0.9,0.2-2.1,0.2h-1.6v-7.9V7.7l1.7,0.1C118.6,7.8,119.4,7.8,119.8,7.9z M226.4,8c0.7,0.3,1,0.7,1.3,1.7
	c0.2,0.6,0.2,1.5,0.2,18.6v18l-0.3,0.6c-0.1,0.4-0.4,0.8-0.7,1.1c-0.6,0.6-1.2,0.8-3,0.8h-1.5V28.3V7.7l1.7,0.1
	C225.7,7.8,225.9,7.8,226.4,8z M93.7,24.2c0.4,4,1,8.7,1.1,10.5l0.4,3.2h-2.3c-1.3,0-2.3,0-2.3-0.1c0,0,0.2-2,0.5-4.4
	c0.6-5.7,1.7-16.4,1.8-16.6C92.9,16.4,93,17.5,93.7,24.2z M173,20.6c1.1,9.5,1.9,17.2,1.9,17.3c0,0-1,0-2.3,0h-2.3l0.1-0.4
	c0.1-0.4,1.3-12.1,1.9-18c0.2-1.5,0.3-2.8,0.3-2.8C172.6,16.8,172.8,18.5,173,20.6z M57.6,58.5c-2.8,0.4-5,1.5-6.3,3.1
	c-1.1,1.3-1.7,2.8-2.1,4.9c-0.2,0.8-0.2,1.5-0.2,4.1c0,3.2,0.1,4.8,0.5,6.5c0.6,2.6,1.8,5.1,3.6,7.6c0.3,0.4,1.8,2.4,3.4,4.4
	c4.4,5.7,5,6.5,5.7,8.1c0.5,1.4,0.6,2,0.7,4.7c0.1,3.5-0.1,4.9-0.9,5.8c-0.4,0.5-0.9,0.7-1.7,0.8c-1.6,0.1-2.7-0.8-3-2.5
	c-0.1-0.3-0.1-3.1-0.1-6.1l0-5.4h-4.3h-4.3l0,6.3c0,6.5,0,7.4,0.4,9c0.3,1.1,1.2,3,1.8,3.8c1.3,1.5,3,2.5,5.3,3
	c1.3,0.3,4.9,0.4,6.4,0.2c4-0.5,6.5-2.2,8.1-5.5c1.3-2.6,1.7-6.1,1.5-11.5c-0.3-5-1.2-7.5-4.8-12.2c-0.4-0.6-1.8-2.4-3.1-4.1
	c-4-5.2-4.5-5.9-5.3-7.3c-0.8-1.5-1-2.6-1.1-5.1c-0.1-2.8,0.2-4.2,1.1-4.7c0.8-0.5,2.4-0.5,3.1,0.2c0.8,0.8,0.9,1.2,0.9,6.6v4.5h4.2
	h4.2L71.2,72c-0.1-6.1-0.1-6.6-0.6-8.2c-0.7-2.2-2.2-3.8-4.2-4.5c-1.5-0.6-2.5-0.7-5.5-0.7C59.5,58.5,57.9,58.5,57.6,58.5z
	 M95.5,58.6c-2.6,0.3-4.7,1.2-6.2,2.9c-1,1.1-1.6,2.1-2.1,3.7c-0.8,2.5-0.8,0.8-0.8,22.6c0,13.6,0,19.7,0.1,20.4
	c0.5,4.1,2.7,7.3,5.8,8.3c0.6,0.2,1,0.2,2.5,0.3c2.1,0,2.4,0,3.9-0.8c1.7-0.9,3.5-2.9,4.4-4.8l0.3-0.7l0.2,0.6
	c0.1,0.5,1,3.6,1.2,4.7l0.1,0.4h2.5h2.5V98.8V81.4h-6.1h-6.1v4.4v4.4h2h2v7.6c0,7.3,0,7.6-0.2,8.3c-0.5,1.6-2.2,2.5-3.9,2
	c-0.8-0.2-1.4-0.8-1.8-1.8l-0.3-0.7V87.2V69l0.2-0.6c0.5-1.1,1.3-1.7,2.4-1.7c1.5,0,2.4,0.7,2.7,2.2c0.1,0.4,0.1,1.9,0.1,4.3v3.8
	h4.3h4.3l0-4.1c0-6.2-0.3-8.1-1.6-10.4c-0.7-1.4-2.3-2.7-3.8-3.3C102.1,58.6,98.5,58.3,95.5,58.6z M155.6,58.6
	c-5,0.7-7.9,3.6-8.5,8.7c-0.1,1.1-0.1,6.1,0,7.4c0.4,3.9,1.5,6.6,3.8,9.8c0.4,0.6,2,2.6,3.3,4.3c4.2,5.3,4.9,6.3,5.6,7.8
	c0.8,1.6,1,2.9,1,6.2c0,3.3-0.2,4.5-1,5.2c-1,0.9-3.1,0.7-3.9-0.4c-0.7-1-0.7-1-0.7-7.3l0-5.7h-4.3h-4.3l0,6.1
	c0,7.3,0.1,8.2,0.9,10.3c1.2,3.2,3.9,5.2,7.7,5.7c1.6,0.2,4.4,0.2,5.8,0c5.1-0.7,8-3.9,9-9.6c0.2-1.3,0.3-6.8,0.2-8.5
	c-0.4-4.1-1.6-6.8-4.7-11c-0.5-0.7-2.1-2.8-3.5-4.6c-3.8-4.9-4.6-6.1-5.2-7.5c-0.7-1.6-0.7-1.9-0.7-4.7c0-2.9,0.1-3.5,0.8-4.2
	c0.8-0.8,2.6-0.8,3.4,0c0.7,0.7,0.7,0.9,0.7,6.2v4.7h4.2h4.2l0-5.2c0-2.9,0-5.7-0.1-6.2c-0.5-4.3-2.5-6.6-6.4-7.5
	c-0.9-0.2-1.5-0.2-3.7-0.3C157.6,58.5,156,58.5,155.6,58.6z M180.8,58.6c-4.4,0.7-6.9,3.2-8,7.8c-0.2,0.9-0.2,1-0.3,20.5
	c0,17.8,0,19.6,0.1,20.8c0.3,2.2,1.1,4.2,2,5.5c0.5,0.7,1.7,1.8,2.4,2.2c1.8,1,3.8,1.5,7,1.5c2.7,0,4.5-0.3,6-1.1
	c2.7-1.3,4.4-3.9,5-7.9c0.2-1.1,0.2-1.9,0.2-8.9v-7.7h-4.2h-4.2l0,7.4c0,7.2,0,7.4-0.3,7.9c-0.5,1.3-1.2,1.8-2.5,1.8
	c-1,0-1.6-0.3-2.1-1c-0.7-1-0.6,0-0.6-20.1c0-17.4,0-18.3,0.2-18.9c0.2-0.8,0.8-1.4,1.4-1.5c0.2-0.1,0.8-0.1,1.2-0.1
	c1,0,1.8,0.4,2.2,1c0.6,0.8,0.6,1.3,0.6,7.3l0,5.4h4.2h4.2l0-6.3c0-6.6,0-7.5-0.5-9.3c-0.6-2.2-2-4.1-3.7-5.1
	c-0.9-0.5-2.5-1-3.9-1.2C185.7,58.4,182,58.4,180.8,58.6z M234.2,58.5c-5,0.5-8,3.2-9.1,8.1c-0.5,2.1-0.5,1.7-0.5,21
	c0,17.2,0,18.3,0.2,19.4c0.6,3.8,1.9,6.2,4,7.9c2.1,1.6,4.5,2.1,8.4,2c3.6-0.1,5.5-0.7,7.5-2.3c1.8-1.5,3-3.9,3.6-7.3l0.2-1.4V87.6
	c0-17,0-18.4-0.2-19.5c-0.7-4.5-2.3-7-5.2-8.5c-1.1-0.5-2.4-0.9-4-1.1C238.4,58.5,235.1,58.4,234.2,58.5z M260.1,58.6
	c-2.9,0.4-4.7,1.4-6.3,3.2c-1.1,1.3-1.8,2.9-2.4,5.3l-0.3,1.3l0,18.4c0,13,0,18.7,0.1,19.5c0.2,2.1,0.6,3.6,1.4,5.3
	c0.6,1.2,1.2,2,2.2,2.9c1.9,1.7,4.4,2.4,8.2,2.4c4.2,0,6.7-0.8,8.7-2.9c1.8-1.8,2.7-4.4,3.1-8.2c0.1-0.8,0.1-7.3,0.1-19.1l0-17.8
	l-0.2-1.3c-0.5-2.9-1.4-4.9-2.9-6.3c-1.2-1.2-3-2.1-5.1-2.5C265.6,58.5,261.4,58.4,260.1,58.6z M0,87.6v28.6l6.7,0
	c3.7,0,7.3,0,8-0.1c4.7-0.4,7.2-2.7,8.2-7.5l0.2-1.2v-20c0-19.1,0-20-0.2-21c-0.8-4.4-3-6.6-7.1-7.3C15,59,13.6,59,7.4,59H0V87.6z
	 M26.4,87.6v28.6h10.1h10.1v-4.4v-4.4h-5.8h-5.8v-8.3v-8.3h4.3h4.3v-4.3v-4.3h-4.3h-4.3v-7.5v-7.5h5.6h5.6v-4.1V59h-9.9h-9.9V87.6z
	 M74.4,87.6v28.6h4.4h4.4V87.6V59h-4.4h-4.4V87.6z M112.7,87.6v28.6h3.9h3.9l0-16.3l0-16.3l4.1,16.3l4.1,16.3h3.5h3.5V87.6V59h-4h-4
	l0.1,15.3c0,10.4,0,15.3,0,15.1c-0.1-0.2-2-8-5.8-23.8c-0.9-3.6-1.6-6.6-1.6-6.7c0,0-1.8-0.1-3.9-0.1h-3.9V87.6z M198.2,87.6v28.6
	h4.3h4.3v-12.6V91h2.9h2.9v12.6v12.6h4.3h4.3V87.6V59H217h-4.3v11.4v11.4h-2.9h-2.9V70.4V59h-4.3h-4.3V87.6z M278.3,87.6v28.6h9.7
	h9.7v-4.4v-4.4h-5.3H287V83.1V59h-4.3h-4.3V87.6z M12.4,66.9c0.6,0.2,1.3,0.9,1.5,1.6c0.1,0.3,0.2,1.1,0.3,1.8
	c0.1,1.7,0.1,32.6,0,34.1c-0.2,1.9-0.6,2.7-1.6,3.2c-0.6,0.3-0.7,0.3-2.3,0.3l-1.7,0V87.2V66.6l1.7,0.1
	C11.3,66.7,12.2,66.8,12.4,66.9z M237.6,66.9c0.5,0.2,1.2,0.7,1.5,1.2c0.6,1.1,0.5,0.3,0.5,19.4c0,12.2,0,17.8-0.1,18.3
	c-0.3,1.4-0.9,2.2-2,2.5c-1.4,0.4-2.8-0.2-3.4-1.4c-0.6-1.1-0.5-0.1-0.6-18.4c0-10.5,0-17.4,0.1-18.2c0.1-1.6,0.4-2.3,1.1-2.9
	c0.3-0.3,0.7-0.5,0.9-0.6C236,66.7,237.1,66.7,237.6,66.9z M264.5,67.1c0.5,0.3,1.1,0.9,1.3,1.6c0.4,1,0.4,2.2,0.3,19.7l0,17.3
	l-0.2,0.7c-0.3,0.7-0.6,1.3-1,1.6c-0.1,0.1-0.6,0.3-0.9,0.4c-1.6,0.4-3.1-0.4-3.6-2.1c-0.2-0.5-0.2-1.9-0.2-18.8V69.2l0.3-0.6
	c0.3-0.8,1.1-1.6,1.7-1.7C262.7,66.7,263.9,66.8,264.5,67.1z"/>
</svg>
